# xmcd
#
# Track frame offsets: 
#        150
#        12927
#        27100
#        40312
#        51875
#        61820
#        72345
#        82827
#        95765
#        110610
#        125212
#        137187
#        148117
#        159080
#        175365
#        189980
#        204215
#        214887
#        225187
#        237355
#        252457
#        263540
#        287460
#        303850
#        320127
#
# Disc length: 4426 seconds
#
# Revision: 0
# Processed by: cddbd v1.5.2PL0 Copyright (c) Steve Scherf et al.
# Submitted via: ExactAudioCopy v0.99pb4
#
DISCID=60114819
DTITLE=Janet McBride - Charlie Ray Presents Janet McBride's Mesquite F
DTITLE=lavored Country
DYEAR=1900
DGENRE=Classic Country
TTITLE0=Looking For Jeannie
TTITLE1=The Suitcase
TTITLE2=Like You Did
TTITLE3=When
TTITLE4=Have a Nice Day
TTITLE5=The Call
TTITLE6=We Don't Love Here
TTITLE7=Mom, Can I Come Home
TTITLE8=Cheaters
TTITLE9=Guilty
TTITLE10=A Little At a Time
TTITLE11=I'm Glad I Didn't Lose
TTITLE12=Wrong Enough
TTITLE13=Sand In the Garden
TTITLE14=The Yodeler's Dream
TTITLE15=Texas Yodel Lady
TTITLE16=I Think I Hear a Yodeling Bird
TTITLE17=The Gospel Yodel
TTITLE18=The Yodeling Tribute
TTITLE19=Montana Cowboy
TTITLE20=The Greatest Party
TTITLE21=I Guess They Didn't Know
TTITLE22=The Picture Is Clear
TTITLE23=It's Not Here
TTITLE24=Who Is This Jesus Person?
EXTD=
EXTT0=
EXTT1=
EXTT2=
EXTT3=
EXTT4=
EXTT5=
EXTT6=
EXTT7=
EXTT8=
EXTT9=
EXTT10=
EXTT11=
EXTT12=
EXTT13=
EXTT14=
EXTT15=
EXTT16=
EXTT17=
EXTT18=
EXTT19=
EXTT20=
EXTT21=
EXTT22=
EXTT23=
EXTT24=
PLAYORDER=
